<mxfile host="app.diagrams.net" modified="2024-07-19T08:06:54.014Z" agent="Mozilla/5.0 (Macintosh; Intel Mac OS X 10_15_7) AppleWebKit/537.36 (KHTML, like Gecko) Chrome/126.0.0.0 Safari/537.36" version="24.7.0" etag="oToVYw3AmLpYjeQ8YdR4" type="github">
  <diagram name="Page-1" id="QFk-nJ8CM5eBe8Giodnu">
    <mxGraphModel>
      <root>
        <mxCell id="0" />
        <mxCell id="1" parent="0" />
      </root>
    </mxGraphModel>
  </diagram>
</mxfile>
